<svg version="1.1" id="Layer_1" xmlns="http://www.w3.org/2000/svg" xmlns:xlink="http://www.w3.org/1999/xlink" x="0px" y="0px" viewBox="0 0 1422.1 1422.7" style="enable-background:new 0 0 1422.1 1422.7;" xml:space="preserve">
<path class="st0" d="M1414.3,640.9v116c0,26.7-1.3,56.3-20,75s-49.3,21-76,21h-438v467c0,26.7,2.7,56.3-16,75s-53.3,21-80,21h-155
	c-26.7,0-59.3-1.3-78-20s-18-49.3-18-76v-467h-431c-26.7,0-55.3-3.3-74-22s-22-47.3-22-74v-116c0-26.7,3.3-56.3,22-75s47.3-21,74-21
	h431v-441c0-26.7,0.3-56.3,19-75s50.3-21,77-21h155c26.7,0,59.3,2.3,78,21s18,48.3,18,75v441h438c26.7,0,55.3,4.3,74,23
	S1414.3,614.3,1414.3,640.9z"/>
</svg>
