<svg version="1.1" id="Layer_1" xmlns="http://www.w3.org/2000/svg" xmlns:xlink="http://www.w3.org/1999/xlink" x="0px" y="0px" viewBox="0 0 163.8 172.5" style="enable-background:new 0 0 163.8 172.5;" xml:space="preserve">
  <path style="fill:#fff;" d="M163.8,85.6c0,0,0-0.1,0-0.1c0-0.2-0.2-0.5-0.3-0.6l-0.6-0.6c-18.7-19.4-37.7-35.9-56.4-48.9
  c-0.2-0.1-0.4-0.2-0.6-0.2C59,2.6,26.7,0.4,19,0.4c-1.7,0-2.5,0.1-2.5,0.1l0,0c-0.2,0-0.4,0.1-0.6,0.3l-0.1,0.1
  c-0.2,0.2-0.3,0.4-0.4,0.6l-0.1,0.5c-1,3.4-2,6.8-2.9,10.2c-0.2,0.7-0.3,1.4-0.5,2c-0.7,2.7-1.4,5.4-2,8.1c-0.2,1-0.5,2-0.7,3
  c-0.5,2.3-1,4.5-1.5,6.8c-0.3,1.3-0.5,2.6-0.8,3.8c-0.4,1.8-0.8,3.7-1.1,5.5c-0.3,1.6-0.6,3.1-0.8,4.7s-0.5,2.9-0.8,4.3
  c-0.3,1.9-0.6,3.7-0.9,5.5c-0.2,1-0.3,2.1-0.5,3.1c-0.3,2.2-0.6,4.4-0.8,6.6c-0.1,0.6-0.2,1.2-0.2,1.8C1.5,70,1.2,72.7,1,75.4l0,0
  l0,0c-5.7,65.7,13.8,93.9,14.8,95.4c0.1,0.1,0.2,0.2,0.3,0.2c0,0.1,0.1,0.1,0.2,0.1c0.2,0.1,0.4,0.2,0.7,0.2c0.1,0,0.2,0,0.3,0h0.2
  c3.6-0.9,7.1-1.8,10.6-2.7l1.8-0.5c2.8-0.8,5.6-1.6,8.3-2.4l2.8-0.9c2.3-0.7,4.5-1.4,6.8-2.1l3.6-1.2c1.8-0.6,3.6-1.2,5.4-1.8
  c1.5-0.5,3-1.1,4.4-1.6s2.8-1,4.1-1.5c1.8-0.7,3.5-1.4,5.2-2l2.9-1.1c2.1-0.9,4.2-1.7,6.2-2.6l1.5-0.6c66-28.7,81.9-62.2,82.7-63.9
  c0,0,0,0,0-0.1C163.8,86,163.9,85.8,163.8,85.6z M41.7,161.8L41.7,161.8c-2.8,0.9-5.7,1.7-8.6,2.6l-1.9,0.5
  c-2.3,0.7-4.7,1.3-7.1,1.9l-1.4,0.4c15.6-12.7,29.8-27.1,42.5-42.7c6.1,7.5,12.9,14.4,20.2,20.7C71.2,151.7,56.6,157.3,41.7,161.8z
  M65.1,120.3C52,103.8,42.5,85.6,35.6,68.5c9.3-1.4,18.7-2,28.1-2c10.6,0,21.1,0.8,31.6,2.3C87.8,88.1,76.7,105.6,65.1,120.3
  L65.1,120.3z M16.2,8.4c0.2,1.2,0.4,2.6,0.7,4.1l-2.2,1.4c0.4-1.4,0.7-2.8,1.1-4.2C15.9,9.3,16,8.8,16.2,8.4z M13.7,17.8l3.7-2.5
  c0.4,2.3,0.9,4.7,1.5,7.5l-7.6,5.1c0.7-3,1.4-6,2.2-9.1C13.5,18.4,13.6,18.1,13.7,17.8L13.7,17.8z M93.7,65.8
  c-3.5-0.5-7.2-0.8-10.8-1.2l18-12.2c-1,3.7-2.2,7.3-3.5,10.9L93.7,65.8z M66.8,63.8l37.3-25.3c-0.6,3.3-1.4,6.7-2.2,10L78.6,64.3
  C74.7,64.1,70.7,63.9,66.8,63.8L66.8,63.8z M104.2,50.1l9.4-6.4c1.9,1.5,3.9,3,5.9,4.5L101,60.8C102.2,57.3,103.2,53.7,104.2,50.1
  L104.2,50.1z M111.4,42.1l-6.2,4.2c0.6-2.5,1.1-5,1.6-7.5C108.2,39.9,109.8,41,111.4,42.1L111.4,42.1z M62,63.8
  c-4.5,0-8.9,0.2-13.3,0.5l47.8-32.4c2.1,1.3,4.2,2.7,6.3,4.2L62,63.8z M43.3,64.8c-2.9,0.3-5.9,0.7-8.7,1.1c-0.4-1-0.8-1.9-1.1-2.9
  l54.1-36.7c2.2,1.3,4.3,2.6,6.6,4L43.3,64.8z M32.5,60.5c-0.8-2.3-1.7-4.6-2.4-6.8l48-32.6c2.2,1.2,4.6,2.5,6.9,3.8L32.5,60.5z
  M29.2,51c-0.8-2.4-1.5-4.7-2.2-7l41-27.9c2.4,1.1,4.8,2.3,7.3,3.5L29.2,51z M21.9,35.5c0.6,2.4,1.3,4.8,2,7.3L6.2,54.9
  c0.5-3.2,1-6.5,1.6-9.8L21.9,35.5z M8.5,41.4c0.6-3.2,1.3-6.5,2-9.8l9-6.1c0.5,2.3,1.1,4.7,1.7,7.3L8.5,41.4z M24.7,45.5
  c0.7,2.3,1.4,4.6,2.2,7L4.5,67.8c0.3-3,0.7-6.1,1.2-9.3L24.7,45.5z M26.2,41.3c-0.7-2.5-1.4-5-2-7.3l33.1-22.4c2.5,1,5.1,2,7.8,3.2
  L26.2,41.3z M23.5,31.3c-0.7-2.6-1.2-5-1.7-7.3L45.9,7.7c2.6,0.8,5.4,1.7,8.4,2.8L23.5,31.3z M21.2,21.2c-0.6-2.7-1.1-5.2-1.5-7.5
  l13.5-9.1c2.8,0.5,5.9,1.2,9.3,2.2L21.2,21.2z M4.1,71.2l23.7-16.1c0.8,2.3,1.6,4.5,2.4,6.8l-10.1,6.8c-5.5,1.3-10.9,2.9-16.2,4.7
  C4,72.8,4,72,4.1,71.2z M31.2,64.6c0.2,0.6,0.5,1.2,0.7,1.8c-1.6,0.3-3.2,0.6-4.8,0.9L31.2,64.6z M99.5,65.1l22.2-15
  c1.9,1.5,3.7,3,5.6,4.6l-19.7,13.4c-2.8-0.5-5.7-1-8.7-1.4C99.1,66.1,99.3,65.6,99.5,65.1L99.5,65.1z M129.4,56.4
  c1.8,1.5,3.7,3.2,5.5,4.8l-14.2,9.7c-3-0.7-6.3-1.4-9.5-2.1L129.4,56.4z M137,63c1.8,1.6,3.5,3.2,5.3,4.8l-9.1,6.2
  c-2.8-0.8-5.8-1.6-8.9-2.4L137,63z M144.3,69.7c1.7,1.6,3.4,3.2,5.1,4.8l-4.6,3.1c-2.6-0.8-5.3-1.7-8.4-2.6L144.3,69.7z M151.4,76.4
  c1.5,1.5,3.1,3.1,4.7,4.6l1,1c-2.4-0.9-5.4-2.1-9-3.3L151.4,76.4z M29.5,3.9l-10.3,6.9c-0.6-3.7-1-6.3-1.1-7.8H19
  C22.5,3.1,26,3.4,29.5,3.9z M3.6,76.5c9.5-3.3,19.3-5.9,29.2-7.6c7.1,17.6,17,36.5,30.6,53.5c-13.6,17-29.1,32.3-46.2,45.8
  C13.7,162.4-1.1,134,3.6,76.5z M88.1,144c-7.7-6.5-14.9-13.7-21.2-21.6C78.8,107.3,90.3,89.2,98,69.1c21.5,3.2,42.6,9,62.7,17.2
  C157.4,92.2,140.3,119.3,88.1,144z"/>
</svg>
