<svg version="1.1" id="Layer_1" xmlns="http://www.w3.org/2000/svg" xmlns:xlink="http://www.w3.org/1999/xlink" x="0px" y="0px" viewBox="0 0 1555 1555" xml:space="preserve">
  <path d="M1033.5,521.5c0-70.7-25-131-75-181s-110.3-75-181-75s-131,25-181,75s-75,110.3-75,181s25,131,75,181s110.3,75,181,75
	s131-25,181-75S1033.5,592.1,1033.5,521.5z M1289.5,521.5c0,72.7-11,132.3-33,179l-364,774c-10.7,22-26.5,39.3-47.5,52
	s-43.5,19-67.5,19s-46.5-6.3-67.5-19s-36.5-30-46.5-52l-365-774c-22-46.7-33-106.3-33-179c0-141.3,50-262,150-362s220.7-150,362-150
	s262,50,362,150S1289.5,380.1,1289.5,521.5z"/>
</svg>
