<svg xmlns="http://www.w3.org/2000/svg" width="400" height="400" viewBox="0 0 400 400">
  <path class="cls-1" d="M209,126L329,6s3.211-4,10-4,10,4,10,4l47,47s3,3.6,3,7-3,8-3,8L273,191a12.3,12.3,0,0,0-3,8c0,4.9,3,10,3,10L395,331s3,3.914,3,8-3,9-3,9l-48,48a10.814,10.814,0,0,1-7,3c-4.07,0-10-4-10-4L208,273s-2.42-3-9-3-9,4-9,4L68,396a13.5,13.5,0,0,1-8,3,13.5,13.5,0,0,1-8-3L3,347a13.25,13.25,0,0,1,0-14L126,210a18.979,18.979,0,0,0,3-10,13.929,13.929,0,0,0-3-9L4,69a12.3,12.3,0,0,1-3-8A31.815,31.815,0,0,1,3,51L51,3s2.1-2,7-2a22.913,22.913,0,0,1,9,2Z"/>
</svg>
